<svg id="Layer_1" data-name="Layer 1" xmlns="http://www.w3.org/2000/svg" viewBox="0 0 400 250"><defs><style>.cls-1{fill:none;stroke:#515151;stroke-miterlimit:10;stroke-width:4px;}.cls-1,.cls-2{fill-rule:evenodd;}.cls-2{fill:#515151;}</style></defs><path class="cls-1" d="M7.25,140.1c1.77-4.64,6.05-6.82,7.46-7.46,7.78-2.59,0-5.18,2.59-10.37,5.19-5.19,15.56-5.19,18.16-7.79,2.59,0-2.59-7.78,0-7.78,5.18-3.73,9.35-4.44,12.37-4.27,4.34.24,8.31,2.39,9.58.78,1.06-1.33-.47-4.3.42-4.73.4-.19,1,.28,1.19.44,3.07,2.27,13.13,1.4,16-3.93a7.22,7.22,0,0,0,.84-3c.6-.06,1.6-.15,2.83-.22,9.57-.51,14.9,1.46,16.3-.77a2.84,2.84,0,0,0,.1-2.42c2.59-5.19,25.94,7.78,36.32,2.6,5.19-2.6,7.78,0,10.38,0,3.32,0,3.55-2.9,7.19-3.27,1.81-.19,1.91.46,5.41.75a34.3,34.3,0,0,0,5.56-.08c2.84-.18,2.54,0,10.38,0,13,0,15.56,0,23.35-2.59a50.78,50.78,0,0,1,5.1-1.2c1.33-.31,6.56-1.53,7.82-1.91C215,80.32,212.15,65.71,222.25,60a75.22,75.22,0,0,0,8.36-4.46c1.54-1,2.75-1.89,3.5-2.46.17,1.15.38,2.62.58,4.32a31,31,0,0,0,.53,5.2c1.36,6.84.64,25.36.48,29.59-.26,6.59-.55,13.84-1.78,23.21-.1.74-1.61,12-3.91,18.56-.37,1.06-1,2.77-2,5.68-.68,2.08-1.1,3.27-1.82,5.36a28.17,28.17,0,0,1-1.37,3.21c-5.19,10.38,0,10.38-7.79,20.75-5.18,7.79-2.59,10.38-15.56,13-10.38,2.59-7.78,5.18-15.57,13s-2.59,7.78-18.16,7.78c-13,0-2.59,2.59-23.35,2.59s-18.16-2.59-31.13,0c-13,5.19-23.35,2.6-23.35,2.6l-5.19-7.78c-2.59-5.19-20.75-2.6-25.94-5.19-10.38-7.79-2.59-5.19-10.38-7.79-5.19-2.59-7.78,0-10.38-7.78,0-2.59-7.78-5.19-10.37-7.78-7.79-15.57-2.6-2.6-13-13C7.81,154,5,146.14,7.25,140.1Z"/><path class="cls-1" d="M318.24,57.41c1.75.35,3.53.87,4.29,2.33s-.79,3.9.9,10.64c2.59,13-20.76,5.19-23.35,15.57,0,2.59-10.38,5.19-10.38,7.78s-2.59,13-10.38,15.57c-5.19,2.59-7.78,5.18-13,7.78-13,2.59-10.38,0-20.75,7.78a29,29,0,0,1-5.74,4.71c-2.06,1.27-3.13,1.57-5.12,2.82a27.22,27.22,0,0,0-5.73,4.89,115.06,115.06,0,0,0,3.45-12.71,161.45,161.45,0,0,0,2.76-23.06c.08-1.08.28-4.05.44-8,.35-8.63,1-23.5-.44-30.94a21.73,21.73,0,0,1-.49-6c.1-1.6.49-4.38.49-4.38,2.59-2.6,5.19-2.6,10.38,0,5.19,0,10.38,2.59,13,2.59,5.19,0,5.19,0,10.38-2.59,2.59-2.6,5.19,0,13-2.6,5.19,0,7.78,0,10.38,2.6,5.19,2.59,7.78,2.59,10.37,5.19A47.87,47.87,0,0,1,318.24,57.41Z"/><path class="cls-2" d="M235.91,93.49c.05-1.28.1-2.56.14-3.84,5-2.27,12.38-5.55,21.39-9.35,17.34-7.3,26.21-11,35.79-13.26,12.34-2.93,22-3.05,30.85-3.09,14.87-.09,39.43,1.5,70.18,11.56.26.47-4.65,6.65-5.83,6.66a119.6,119.6,0,0,0-27.1-10.52c-14.82-3.76-26.73-3.73-36.82-3.64-8.53.07-18,.16-30.1,2.85-3.33.73-9.57,2.27-34.87,12.64C249.72,87.53,241.6,91,235.91,93.49Z"/><path class="cls-2" d="M206.88,83.39l1.44-1q2.1-1.41,4.12-2.56c-8.19,14.59-25.75,40.54-57.61,57-20.1,10.39-38.76,13.33-48.22,14.74C84.78,154.86,67.46,153,52,151.42a291.86,291.86,0,0,1-44.42-8.17.43.43,0,0,1-.09-.54.48.48,0,0,1,.36-.19,413.46,413.46,0,0,0,44.55,5.8c20,1.51,34.74,2.62,53.53-.18,9.68-1.44,27.73-4.27,47.46-14.46C181.68,119.07,198.33,97.13,206.88,83.39Z"/></svg>