<svg id="Layer_1" data-name="Layer 1" xmlns="http://www.w3.org/2000/svg" xmlns:xlink="http://www.w3.org/1999/xlink" viewBox="0 0 400 250"><defs><style>.cls-1{fill:#0e780a;}.cls-1,.cls-2{stroke:#275906;stroke-linecap:round;stroke-linejoin:round;stroke-width:0.4px;}.cls-1,.cls-18,.cls-2,.cls-29{fill-rule:evenodd;}.cls-2{fill:#0e6e0a;}.cls-3{opacity:0.56;}.cls-4{fill:url(#linear-gradient);}.cls-5{opacity:0.44;}.cls-6{fill:url(#linear-gradient-2);}.cls-7{opacity:0.47;}.cls-8{fill:url(#linear-gradient-3);}.cls-9{opacity:0.57;}.cls-10{fill:url(#linear-gradient-4);}.cls-11{fill:url(#linear-gradient-5);}.cls-12{opacity:0.69;}.cls-13{fill:url(#linear-gradient-6);}.cls-14{fill:url(#linear-gradient-7);}.cls-15{fill:url(#linear-gradient-8);}.cls-16{opacity:0.61;}.cls-17{fill:url(#linear-gradient-9);}.cls-18{fill:url(#linear-gradient-10);}.cls-19{opacity:0.62;}.cls-20{fill:url(#linear-gradient-11);}.cls-21{fill:url(#linear-gradient-12);}.cls-22{fill:url(#linear-gradient-13);}.cls-23{opacity:0.6;}.cls-24{fill:url(#linear-gradient-14);}.cls-25{opacity:0.49;}.cls-26{fill:url(#linear-gradient-15);}.cls-27{opacity:0.54;}.cls-28{fill:url(#linear-gradient-16);}.cls-29{fill:url(#linear-gradient-17);}</style><linearGradient id="linear-gradient" x1="85.93" y1="172.02" x2="122.5" y2="172.02" gradientUnits="userSpaceOnUse"><stop offset="0" stop-color="#0e6e0a"/><stop offset="1" stop-color="#0e780a"/></linearGradient><linearGradient id="linear-gradient-2" x1="37.57" y1="163.09" x2="64.28" y2="162.9" gradientUnits="userSpaceOnUse"><stop offset="0" stop-color="#0e780a"/><stop offset="0.94" stop-color="#0e6e0a"/></linearGradient><linearGradient id="linear-gradient-3" x1="92.17" y1="134.04" x2="136.9" y2="124.67" xlink:href="#linear-gradient"/><linearGradient id="linear-gradient-4" x1="136.17" y1="158.08" x2="162.52" y2="154.46" xlink:href="#linear-gradient"/><linearGradient id="linear-gradient-5" x1="62.03" y1="163.52" x2="93.37" y2="163.52" xlink:href="#linear-gradient"/><linearGradient id="linear-gradient-6" x1="201.63" y1="153.87" x2="177.68" y2="101.57" xlink:href="#linear-gradient"/><linearGradient id="linear-gradient-7" x1="240.18" y1="67.53" x2="266.13" y2="67.32" gradientUnits="userSpaceOnUse"><stop offset="0" stop-color="#0e780a"/><stop offset="0.97" stop-color="#0e6e0a"/></linearGradient><linearGradient id="linear-gradient-8" x1="290.76" y1="97.51" x2="280.01" y2="74.77" xlink:href="#linear-gradient"/><linearGradient id="linear-gradient-9" x1="252.74" y1="116.56" x2="247.19" y2="83.52" xlink:href="#linear-gradient"/><linearGradient id="linear-gradient-10" x1="235.91" y1="78.72" x2="394.27" y2="78.72" xlink:href="#linear-gradient"/><linearGradient id="linear-gradient-11" x1="154.62" y1="120.25" x2="156.87" y2="113.69" xlink:href="#linear-gradient"/><linearGradient id="linear-gradient-12" x1="37.99" y1="152.48" x2="42.68" y2="164.83" xlink:href="#linear-gradient"/><linearGradient id="linear-gradient-13" x1="130.85" y1="155.72" x2="158.18" y2="151.97" xlink:href="#linear-gradient"/><linearGradient id="linear-gradient-14" x1="56.05" y1="179.42" x2="98.63" y2="163.75" gradientUnits="userSpaceOnUse"><stop offset="0" stop-color="#0e780a"/><stop offset="0.99" stop-color="#0e6e0a"/></linearGradient><linearGradient id="linear-gradient-15" x1="55.51" y1="112.1" x2="55.69" y2="132.75" xlink:href="#linear-gradient"/><linearGradient id="linear-gradient-16" x1="35.38" y1="132.6" x2="93.94" y2="132.6" xlink:href="#linear-gradient"/><linearGradient id="linear-gradient-17" x1="7.08" y1="116.98" x2="208.44" y2="116.98" xlink:href="#linear-gradient"/></defs><path class="cls-1" d="M7.25,140.1c1.77-4.64,6.05-6.82,7.46-7.46,7.78-2.59,0-5.18,2.59-10.37,5.19-5.19,15.57-5.19,18.16-7.79,2.59,0-2.59-7.78,0-7.78,5.18-3.73,9.35-4.44,12.37-4.27,4.34.24,8.31,2.39,9.58.78,1.06-1.33-.47-4.3.42-4.73.4-.19,1,.28,1.19.44,3.07,2.27,13.13,1.4,16-3.93a7.22,7.22,0,0,0,.84-3c.6-.06,1.6-.15,2.83-.22,9.57-.51,14.9,1.46,16.3-.77a2.84,2.84,0,0,0,.1-2.42c2.59-5.19,25.94,7.78,36.32,2.6,5.19-2.6,7.78,0,10.38,0,3.32,0,3.55-2.9,7.19-3.27,1.81-.19,1.91.46,5.41.75a34.3,34.3,0,0,0,5.56-.08c2.84-.18,2.54,0,10.38,0,13,0,15.56,0,23.35-2.59a50.78,50.78,0,0,1,5.1-1.2c1.33-.31,6.56-1.53,7.82-1.91C215,80.32,212.15,65.71,222.25,60c2.47-1.39,7.06-3,13-7.78l1.23-1a13.16,13.16,0,0,0-1.51,6.63,14,14,0,0,0,3.18,7.78c2.76,3.65,2.71,19.75-7.67,70.24a28.62,28.62,0,0,0-2.41,3.79c-1.42,2.68-.94,4.07-3.19,8.57-5.19,10.38,0,10.38-7.79,20.75-5.18,7.79-2.59,10.38-15.56,13-10.38,2.59-7.78,5.18-15.57,13s-2.59,7.78-18.16,7.78c-13,0-2.59,2.59-23.35,2.59s-18.16-2.59-31.13,0c-13,5.19-23.35,2.6-23.35,2.6l-5.19-7.78c-2.59-5.19-20.75-2.6-25.94-5.19-10.38-7.79-2.59-5.19-10.38-7.79-5.19-2.59-7.78,0-10.38-7.78,0-2.59-7.78-5.19-10.37-7.78-7.79-15.57-2.6-2.6-13-13C7.81,154,5,146.14,7.25,140.1Z"/><path class="cls-2" d="M318.24,57.41c1.75.35,3.53.87,4.29,2.33s-.79,3.9.9,10.64c2.59,13-20.76,5.19-23.35,15.57,0,2.59-10.38,5.19-10.38,7.78s-2.59,13-10.38,15.57c-5.19,2.59-7.78,5.18-13,7.78-13,2.59-10.38,0-20.75,7.78-7.79,7.78-5.19,2.6-10.38,7.78s-5.19,2.6-5.19,2.6c1.15-4.34,1.92-8,2.43-10.67a187.83,187.83,0,0,0,2.76-23.06c.08-1.08.28-4.05.44-8,.35-8.63,1-23.5-.44-30.94a21.73,21.73,0,0,1-.49-6c.1-1.6.49-4.38.49-4.38h0c2.59-2.6,5.19-2.6,10.38,0,5.19,0,10.38,2.59,13,2.59,5.19,0,5.19,0,10.38-2.59,2.59-2.6,5.19,0,13-2.6,5.19,0,7.78,0,10.38,2.6,5.19,2.59,7.78,2.59,10.37,5.19A47.87,47.87,0,0,1,318.24,57.41Z"/><g class="cls-3"><path class="cls-4" d="M122.5,146.71a58.29,58.29,0,0,1-5.13,15.17,41,41,0,0,1-4.38,6.74,37.06,37.06,0,0,1-5.71,5.63c-2.08,1.65-4.23,3.18-6.28,4.82a48.52,48.52,0,0,0-5.75,5.35,46.2,46.2,0,0,0-8.39,13.27,46.71,46.71,0,0,1,8-13.6,48.19,48.19,0,0,1,5.66-5.59c2-1.73,4.12-3.33,6.11-5A36,36,0,0,0,116,161.21a56.14,56.14,0,0,0,4.51-14.86Z"/></g><g class="cls-5"><path class="cls-6" d="M63.8,150.61a32.32,32.32,0,0,1-5.37,7.32,28.61,28.61,0,0,1-7.38,5.35,31,31,0,0,0-7.15,5.28,45.45,45.45,0,0,0-5.77,6.87l-.09-.05a28.06,28.06,0,0,1,5.15-7.53,25.32,25.32,0,0,1,7.49-5.28,28.18,28.18,0,0,0,7.41-5,32.65,32.65,0,0,0,5.63-7Z"/></g><g class="cls-7"><path class="cls-8" d="M140.1,141.65a53.82,53.82,0,0,1-14.42-1.78,52.93,52.93,0,0,1-6.88-2.31,36.08,36.08,0,0,1-6.41-3.41c-2-1.32-4-2.72-5.89-4.13s-3.88-2.8-5.77-4.27L89.38,117,101,125.34c1.94,1.4,3.94,2.71,5.91,4.06s3.95,2.68,6,3.9A42.83,42.83,0,0,0,126,138.42a52.47,52.47,0,0,0,14,1.23Z"/></g><g class="cls-9"><path class="cls-10" d="M159.56,132.87c-3.09,8-6,16.08-8.66,24.23-.67,2-1.3,4.1-2.1,6.12s-1.67,4-2.62,5.91c-1.89,3.87-4.06,7.58-6.11,11.35,1.9-3.85,3.93-7.65,5.66-11.56.87-2,1.67-3.95,2.37-6s1.25-4.08,1.84-6.15q3.54-12.41,7.74-24.62Z"/></g><path class="cls-11" d="M93.37,152.49a77.76,77.76,0,0,1-14.19,13.3,81.87,81.87,0,0,1-17,9.38,81.08,81.08,0,0,0,16.66-9.78,77,77,0,0,0,13.71-13.53Z"/><g class="cls-12"><path class="cls-13" d="M196.53,93.31A69.8,69.8,0,0,1,198,120.07a44.85,44.85,0,0,1-2,8.73c-.94,2.84-2,5.6-3.11,8.36s-2.15,5.52-3.31,8.24l-7,16.36,6.5-16.54c1.09-2.75,2.06-5.55,3.08-8.33s2-5.57,2.85-8.39a43.58,43.58,0,0,0,1.76-8.58,68,68,0,0,0,.39-8.79,69.15,69.15,0,0,0-2.59-17.3Z"/></g><path class="cls-14" d="M266,78.13a29,29,0,0,1-8.07-3,24.47,24.47,0,0,1-6.76-5.24c-1.9-2.12-3.68-4.32-5.46-6.52l-5.25-6.69,5.44,6.52c1.84,2.15,3.69,4.31,5.63,6.35a24.25,24.25,0,0,0,6.75,4.92,28.13,28.13,0,0,0,7.91,2.64Z"/><path class="cls-15" d="M292.6,69.43a6.69,6.69,0,0,0-3.26,3.1A14.23,14.23,0,0,0,288.21,77a47.2,47.2,0,0,1-1.79,9.2,85.49,85.49,0,0,1-3.59,8.65c-1.46,2.76-2.9,5.53-4.53,8.18l-.09,0c1.12-2.92,2.42-5.73,3.71-8.54s2.64-5.63,3.74-8.5a46.23,46.23,0,0,0,2.06-9,14.67,14.67,0,0,1,1.35-4.51,7,7,0,0,1,3.49-3Z"/><g class="cls-16"><path class="cls-17" d="M257.87,82.2a31.49,31.49,0,0,0-6.18,7.72,26.19,26.19,0,0,0-3.06,9.31c-.25,1.64-.45,3.3-.76,5a35.6,35.6,0,0,1-1.28,4.87,38.79,38.79,0,0,1-4.42,9l-.09,0a70.26,70.26,0,0,0,3.56-9.25,75.48,75.48,0,0,0,2.2-9.65,26.75,26.75,0,0,1,3.42-9.43,31.47,31.47,0,0,1,6.54-7.54Z"/></g><path class="cls-18" d="M235.91,93.49c.05-1.28.1-2.56.14-3.84,5-2.27,12.38-5.55,21.39-9.35,17.34-7.3,26.21-11,35.79-13.26,12.34-2.93,22-3.05,30.85-3.09,14.87-.09,39.43,1.5,70.18,11.56.26.47-4.65,6.65-5.83,6.66-14.17-7-36.69-15.69-64.19-16a140.47,140.47,0,0,0-30.46,3c-14.29,3.12-24.89,8-35.94,13C248.53,86.43,241.06,90.52,235.91,93.49Z"/><g class="cls-19"><path class="cls-20" d="M176.25,121.15a27.16,27.16,0,0,1-10.64,1.69,22.93,22.93,0,0,1-5.33-.88,39.3,39.3,0,0,1-5-2c-3.23-1.5-6.46-3-9.76-4.3s-6.64-2.54-10-3.64c3.4,1,6.78,2.15,10.11,3.41s6.62,2.65,9.87,4.07a39.55,39.55,0,0,0,5,1.85,21.66,21.66,0,0,0,5.19.73,26.3,26.3,0,0,0,10.26-1.88Z"/></g><path class="cls-21" d="M56.75,159.22c-.64.29-1.28.57-1.94.84a15.21,15.21,0,0,1-2,.72,20.41,20.41,0,0,1-2,.54c-.69.18-1.39.28-2.09.39a59.5,59.5,0,0,1-8.44.3,43.34,43.34,0,0,1-16.34-4l0-.05a75.33,75.33,0,0,0,16.34,3.74,28.25,28.25,0,0,0,8.36-.44c.69-.11,1.37-.25,2-.4s1.37-.3,2-.49c.33-.1.68-.17,1-.27l1-.33q1-.33,2-.63Z"/><path class="cls-22" d="M156.33,138.93a44.72,44.72,0,0,0-3.71,3,43.19,43.19,0,0,0-3.46,3.3,34.32,34.32,0,0,0-3,3.68,45.87,45.87,0,0,0-2.53,4.06c-1.58,2.78-3.22,5.53-5,8.17-.9,1.32-1.83,2.63-2.79,3.91s-2,2.49-3,3.71c1-1.27,1.92-2.55,2.84-3.86s1.88-2.58,2.78-3.9c1.81-2.64,3.45-5.37,5-8.16.8-1.38,1.61-2.77,2.54-4.07a35.35,35.35,0,0,1,3.07-3.71,45.26,45.26,0,0,1,3.47-3.32A46.18,46.18,0,0,1,156.33,138.93Z"/><g class="cls-23"><path class="cls-24" d="M93.72,151.31a103.58,103.58,0,0,1-13.84,22.42A99.18,99.18,0,0,1,71,183.54,94.17,94.17,0,0,1,60.85,192l-.06-.08c3.24-3,6.47-5.93,9.53-9.07s6.12-6.26,8.94-9.6a106.23,106.23,0,0,0,7.84-10.54,97.48,97.48,0,0,0,6.53-11.41Z"/></g><g class="cls-25"><path class="cls-26" d="M54.27,132.59c.63-3.36,1.21-6.75,1.51-10.16.13-1.7.18-3.44.39-5.15s.49-3.41.76-5.1c-.18,1.71-.43,3.41-.51,5.12s-.09,3.42-.14,5.16c-.14,3.45-.55,6.88-1,10.3Z"/></g><g class="cls-27"><path class="cls-28" d="M93.41,150.78a128.27,128.27,0,0,1-31.47-13.87,101.83,101.83,0,0,1-25.79-22.48,101.3,101.3,0,0,0,26.3,21.62,126.36,126.36,0,0,0,31.49,12.8Z"/></g><path class="cls-29" d="M205.61,83.38a10.77,10.77,0,0,0,1.43-.44,11.77,11.77,0,0,0,1.4-.63c-6.32,11.16-23.11,37.43-54.82,54A139.17,139.17,0,0,1,105.44,151a157.56,157.56,0,0,1-20.07.68c-22.62-.14-41.05-3.23-62.31-6.88-6.87-1.18-12.44-2.25-16-2.94l0-.27c3.5.54,9.13,1.39,16.08,2.37,41.56,5.89,55.91,6,61.55,6A160.17,160.17,0,0,0,105,149a143.13,143.13,0,0,0,47.71-14.19C182.59,119.35,198.94,94.82,205.61,83.38Z"/></svg>