<?xml version="1.0" encoding="utf-8"?>
<!-- Generator: Adobe Illustrator 26.0.3, SVG Export Plug-In . SVG Version: 6.00 Build 0)  -->
<svg version="1.1" id="Layer_1" xmlns="http://www.w3.org/2000/svg" xmlns:xlink="http://www.w3.org/1999/xlink" x="0px" y="0px"
	 viewBox="0 0 464.41 740.85" style="enable-background:new 0 0 464.41 740.85;" xml:space="preserve">
<style type="text/css">
	.st0{fill:none;stroke:#515151;stroke-width:3;stroke-miterlimit:10;}
	.st1{fill:#515151;}
	.st2{fill:none;}
	.st3{font-family:'PPEditorialNew-Ultrabold';}
	.st4{font-size:14.8743px;}
</style>
<path class="st0" d="M128.35,65.89c0,0,0.83-1.2,2.36-1.93c13.05-6.19,124.98-5.87,124.98-5.87c0,0,102.88,0.29,114.34,7.97
	c1.19,0.8,1.95,1.89,1.95,1.89c0,0,0.85,1.23,1.16,2.82c1.77,9.13-11.12,603.96-11.1,606.74c0,0.21,0.1,1.89-0.97,3.15
	c0,0-0.92,1.09-2.72,1.44c-12.51,2.41-135.98-2.53-135.98-2.53s-107.24-4.3-129.3-10c-0.83-0.21-1.31-0.75-1.31-0.75
	s-0.57-0.64-0.64-1.75C90.44,655.85,127.55,74,127.36,69.14C127.36,68.95,127.34,67.35,128.35,65.89z"/>
<path class="st0" d="M140.75,77.13c-1.61,1.73-1.71,4.04-1.75,4.62c-6.17,89.68-9.66,179.52-14.73,269.26
	c-0.02,0.35-0.16,1.93,0.81,3.17c1.32,1.68,3.9,1.67,4.49,1.69c1.77,0.05,207.4,6.32,215.03,6.88c0.81,0.06,3.95,0.39,6.07-1.52
	c2.17-1.96,2.13-5.23,2.14-6.09c0.02-1.54,4.08-266.45,4.62-272.07c0.04-0.39,0.36-2.67-0.98-4.02c-0.94-0.95-2.29-1.01-2.63-1.03
	c-79.44-5.51-121.89-4.7-206.79-3.09C146.13,74.94,142.81,74.92,140.75,77.13z"/>
<path class="st0" d="M130.62,509.83c0.28-53.12,42.7-102.08,98.2-103.3c56.94-1.26,102.36,48.28,102.74,102.74
	c0.41,58.46-51.19,109.1-109.22,104.26C170.35,609.18,130.35,561.73,130.62,509.83z"/>
<path class="st0" d="M183.35,508.12c0.13-24.48,19.68-47.05,45.26-47.61c26.24-0.58,47.18,22.25,47.35,47.35
	c0.19,26.94-23.59,50.28-50.34,48.05C201.66,553.91,183.22,532.04,183.35,508.12z"/>
<path class="st1" d="M213.19,586.1c-0.06,0.04-0.1,0.1-0.09,0.18c-0.06,3.91-0.11,7.81-0.17,11.72c-0.01,0.08,0.03,0.16,0.1,0.19
	c0.08,0.04,0.16-0.01,0.17-0.02c3.09-1.74,10.17-5.74,10.33-5.88c0.08-0.08,0.08-0.15,0.08-0.15c0-0.06-0.03-0.11-0.08-0.15
	c-3.38-1.96-6.75-3.92-10.13-5.88C213.34,586.07,213.26,586.07,213.19,586.1z"/>
<path class="st1" d="M233.9,598.92l-2.42-0.04c-0.28,0-0.5-0.23-0.49-0.51l0.2-11.73c0-0.28,0.23-0.5,0.51-0.49l2.42,0.04
	c0.28,0,0.5,0.23,0.49,0.51l-0.2,11.73C234.4,598.7,234.18,598.93,233.9,598.92z"/>
<path class="st1" d="M165.31,511.64c0.06-0.03,0.1-0.1,0.1-0.17c0.25-3.9,0.51-7.8,0.76-11.7c0.01-0.08-0.02-0.16-0.09-0.19
	c-0.08-0.04-0.16,0-0.17,0.01c-3.17,1.58-10.45,5.22-10.61,5.35c-0.09,0.07-0.09,0.15-0.09,0.15c0,0.06,0.03,0.11,0.07,0.15
	c3.27,2.13,6.54,4.26,9.82,6.38C165.16,511.67,165.24,511.67,165.31,511.64z"/>
<path class="st1" d="M156.22,511.18c0.06-0.03,0.1-0.1,0.1-0.17c0.25-3.9,0.51-7.8,0.76-11.7c0.01-0.08-0.02-0.16-0.09-0.19
	c-0.08-0.04-0.16,0-0.17,0.01c-3.17,1.58-10.45,5.22-10.61,5.35c-0.09,0.07-0.09,0.15-0.09,0.15c0,0.06,0.03,0.11,0.07,0.15
	c3.27,2.13,6.54,4.26,9.82,6.38C156.07,511.21,156.15,511.21,156.22,511.18z"/>
<path class="st1" d="M146.04,511.02l-2.42-0.16c-0.28-0.02-0.48-0.26-0.46-0.53l0.79-11.71c0.02-0.28,0.26-0.48,0.53-0.46l2.42,0.16
	c0.28,0.02,0.48,0.26,0.46,0.53l-0.79,11.71C146.55,510.83,146.32,511.04,146.04,511.02z"/>
<path class="st1" d="M295.76,503.8c-0.06,0.04-0.1,0.1-0.1,0.17c-0.12,3.91-0.24,7.81-0.37,11.72c-0.01,0.08,0.03,0.16,0.1,0.19
	c0.08,0.04,0.16-0.01,0.17-0.01c3.12-1.69,10.26-5.57,10.42-5.71c0.08-0.07,0.09-0.15,0.09-0.15c0-0.06-0.03-0.11-0.08-0.15
	c-3.34-2.02-6.68-4.03-10.03-6.05C295.91,503.77,295.82,503.76,295.76,503.8z"/>
<path class="st1" d="M304.86,503.95c-0.06,0.04-0.1,0.1-0.1,0.17c-0.12,3.91-0.24,7.81-0.37,11.72c-0.01,0.08,0.03,0.16,0.1,0.19
	c0.08,0.04,0.16-0.01,0.17-0.01c3.12-1.69,10.26-5.57,10.42-5.71c0.08-0.07,0.09-0.15,0.09-0.15c0-0.06-0.03-0.11-0.08-0.15
	c-3.34-2.02-6.68-4.03-10.03-6.05C305.01,503.92,304.93,503.92,304.86,503.95z"/>
<path class="st1" d="M315.04,503.77l2.42,0.08c0.28,0.01,0.49,0.24,0.48,0.52l-0.4,11.73c-0.01,0.28-0.24,0.49-0.52,0.48l-2.42-0.08
	c-0.28-0.01-0.49-0.24-0.48-0.52l0.4-11.73C314.53,503.98,314.76,503.76,315.04,503.77z"/>
<path class="st1" d="M240.87,599.04l-2.42-0.04c-0.28,0-0.5-0.23-0.49-0.51l0.2-11.73c0-0.28,0.23-0.5,0.51-0.49l2.42,0.04
	c0.28,0,0.5,0.23,0.49,0.51l-0.2,11.73C241.37,598.82,241.15,599.04,240.87,599.04z"/>
<rect x="226.34" y="398.21" transform="matrix(0.044 -0.999 0.999 0.044 -202.7533 639.5463)" class="st2" width="12.91" height="55.02"/>
<text transform="matrix(0.999 0.044 -0.044 0.999 206.4086 430.4326)" class="st1 st3 st4">MENU</text>
</svg>
