<svg id="Layer_1" data-name="Layer 1" xmlns="http://www.w3.org/2000/svg" xmlns:xlink="http://www.w3.org/1999/xlink" viewBox="0 0 300 300"><defs><style>.cls-1{fill:none;}.cls-2{clip-path:url(#clip-path);}.cls-3{clip-path:url(#clip-path-2);}.cls-11,.cls-4{fill:#ffc800;}.cls-10,.cls-4,.cls-5,.cls-6{fill-rule:evenodd;}.cls-5{fill:#ffcf19;}.cls-6{fill:#ffe444;}.cls-7{fill:#9fd7e7;}.cls-8{clip-path:url(#clip-path-3);}.cls-9{clip-path:url(#clip-path-4);}.cls-10{fill:#f80;}.cls-12{clip-path:url(#clip-path-5);}</style><clipPath id="clip-path"><path class="cls-1" d="M-320,150-171,0-20,151.67-170,300Z"/></clipPath><clipPath id="clip-path-2"><rect class="cls-1" x="-320" width="300" height="300"/></clipPath><clipPath id="clip-path-3"><path class="cls-1" d="M75,0l75,75H75ZM225,75V0L150,75ZM75,225V150L0,225ZM75,75H0l75,75ZM225,225H150l75,75ZM75,225v75l75-75ZM225,75v75l75-75Zm0,150h75l-75-75ZM150,75,75,150l75,75,75-75Z"/></clipPath><clipPath id="clip-path-4"><rect class="cls-1" x="-21.3" y="-21.19" width="342.49" height="342.49"/></clipPath><clipPath id="clip-path-5"><rect class="cls-1" x="320" width="300" height="300"/></clipPath></defs><g class="cls-2"><g class="cls-3"><path class="cls-4" d="M2.24,284.9-118.18,182.46l-10.92,9.08L-7.6,317.67Z"/><path class="cls-4" d="M6,222.57-122.4,171l2.37-3.47L8.26,208.75Z"/><path class="cls-5" d="M-1.68,252.14l-117.86-72.92,6.5-5.51L24.24,227.57Z"/><path class="cls-6" d="M-2.85,302.05-134.08,176.9l7.6-2.88L24.37,266.64Z"/><path class="cls-6" d="M-4.73,205.17l-113.39-36.6,7.67-6.27L2.77,171.4Z"/><path class="cls-4" d="M2,43.55l-115.35,72.63.65.57L6.39,45.45Z"/></g></g><rect class="cls-7" width="300" height="300"/><g class="cls-8"><g class="cls-9"><path class="cls-10" d="M240-40.38,172.18,101.84l7.19-2.55L300.22-39.83Z"/><path class="cls-4" d="M326.82-2.68,203.68,100.58l8.24,8.63L327.17,34.14Z"/><path class="cls-5" d="M273.68-21.73,186.19,88.79l2.75,2.79c32.13-39.64,61.59-79.51,95.76-116.32Z"/><path class="cls-10" d="M-29.11-36.67,96.35,100.18l15.83-10.94L44.61-37.54Z"/><path class="cls-10" d="M-24.17,34.58,85.46,121,89,113-23.73,10.78Z"/><path class="cls-4" d="M346.57,304.06,209.1,187.12l-12.47,10.36,138.72,144Z"/><path class="cls-5" d="M158.79-27,150.84,81.54l12-4.1L192-27.36Z"/><path class="cls-5" d="M133.05,329.46l13.76-136.68-12.31-3.61L99.32,308.57,91.6,335.09Z"/><path class="cls-5" d="M9.24-23.55,104.29,99.37l4.24-7.09L43.79-22.53Z"/><path class="cls-6" d="M328.47,42.72,210.56,114.48c4.29,8.19,10.18,10.94,10.18,10.94s113-49.94,122.17-53.76Z"/><path class="cls-10" d="M329.11-31.53l-132,127.32,2.37,8.69L330.18-5Z"/><path class="cls-10" d="M332.76,25.1,212.34,108.52l.22,4L332.1,40.34Z"/><path class="cls-6" d="M203.83-60.84,165.43,84.58,171.12,86,228.37-39.75Z"/><path class="cls-6" d="M196.35-36.34,165.43,84.58,171.12,86,228.37-39.75Z"/><path class="cls-6" d="M290.7-35.71,189.05,90.93l6.59,6.94L332.12-30.45Z"/><path class="cls-6" d="M115.42-47.09,133.89,84.85l12.33-2.74L146-45.51Z"/><path class="cls-6" d="M-30.48,73.08,87.2,131.25l.08-8.88L-25,35.56Z"/><path class="cls-6" d="M-21.8,7,90.75,110l9-8.73L-24.24-45.4Z"/><path class="cls-6" d="M46.32-32.66l63,121,16.56-3.39L91.5-42Z"/><path class="cls-4" d="M-40.42,239.92l146.53-58.87-2.71-4L-43.06,224.15Z"/><path class="cls-10" d="M-30.15,139l124.2,20.46-2.91-4-117-30Z"/><path class="cls-10" d="M-21.49,241,99.27,185.13l-4-1.91L-22,226.2Z"/><path class="cls-5" d="M55,327.62,126.54,187l-9.09-.43L-30.27,329.22Z"/><path class="cls-5" d="M-31.72,273.69l134.56-83.26-7.42-6.29L-61.31,245.63Z"/><path class="cls-6" d="M-22.47,175.32,95,166.25l.66-6.87-119-20.24Z"/><path class="cls-6" d="M-30.38,330.66,119.44,187.79l-8.67-3.3L-61.45,290.24Z"/><path class="cls-6" d="M-28.23,220.06l129.46-41.78-8.76-7.16L-36.79,181.5Z"/><path class="cls-6" d="M173.64,325.62c-3.78-64-4.55-44.07-10.4-110.06-2.1.81-11.53-.89-11.53-.89l-1.44,111.89Z"/><path class="cls-6" d="M236.51,329.91l-52.15-115-11.69.19L197.17,331Z"/><path class="cls-6" d="M92.52,326l35.14-115.24-13.07-.48-58.8,115.3Z"/><path class="cls-10" d="M252.06,331.15,184.65,202.86l-4.83,2.93,56.73,125.9Z"/><path class="cls-10" d="M151.42,328l.83-127.34h-6.17L132.19,328.43Z"/><path class="cls-10" d="M321.48,325.06,203.67,201.28,198,205.84l88.43,130.74Z"/><path class="cls-6" d="M284.41,326,184.49,183.62l-5.82,8.71,72,138.58Z"/><path class="cls-10" d="M98.37,327.64l35.14-129.89L129,202.94,84.14,327.3Z"/><path class="cls-5" d="M206.82,373.22,168.44,193.48l-8.05,1.07c4.46,39.37,15.34,161.57,15.34,161.57S194,370.57,206.82,373.22Z"/><path class="cls-10" d="M114.43,201l-83.29,124-36.57-2.29L109.26,198Z"/><path class="cls-4" d="M207.4-82.87,157.55,96.45l4.36,1,49-180.85Z"/><path class="cls-4" d="M227.4-38.51,172.5,82.63l7.8,3.56L250.21-36.66Z"/><path class="cls-4" d="M146.12-23.46l-1.61,99.32,8.31-1.31L159.57-25Z"/><path class="cls-4" d="M90.08-29.25,125.7,85.47l9.12-2.55L118.32-30.29Z"/><path class="cls-4" d="M-30.27,100.53l122,43.52-1.41-12.21L-31.37,64.78C-31.88,63.81-30.27,100.53-30.27,100.53Z"/><path class="cls-4" d="M326,71.69,219.35,124l1.47,14,114.84-46.6Z"/><path class="cls-5" d="M-29.29,193.78,89.12,172.09l-1-6-115,6.27C-27.51,182.22-29.29,193.78-29.29,193.78Z"/><path class="cls-6" d="M-22.53,127.78l108.11,26.1,2-11.8L-22.28,100.24Z"/><path class="cls-4" d="M350.81,232.9,204.28,174l2.71-4,146.46,47.06Z"/><path class="cls-10" d="M340.29,137.84l-124,14.57,2.91-4,117-30Z"/><path class="cls-5" d="M342.11,266.67,207.55,183.41l7.42-6.29,156.72,61.49Z"/><path class="cls-6" d="M332.86,168.3l-117.5-9.07-.66-6.87L335,138.43Z"/><path class="cls-6" d="M340.77,323.64,191,180.77l8.67-3.29L371.84,283.22Z"/><path class="cls-6" d="M338.62,213,209.16,171.26l8.76-7.16,129.26,10.38Z"/><path class="cls-5" d="M339.68,186.76,221.27,165.08l1-6,115,6.26C337.9,175.21,339.68,186.76,339.68,186.76Z"/><path class="cls-6" d="M332.91,120.32,225,147.36,223,135.58l109.46-42.8Z"/><path class="cls-4" d="M-26.16,8.41,87.35,113.22l4-7.43L-23.74-5.38Z"/><path class="cls-4" d="M-39.47,27.36,85,120.79l.35-.92-124.55-98Z"/><path class="cls-10" d="M325.87,223.29l-107.09-44.1-.42,1.19,108.57,55.3Z"/><path class="cls-4" d="M346.32,28.53,214.63,111.45l.74.65,136-81.4Z"/><circle class="cls-11" cx="149.94" cy="150.06" r="75.5"/></g></g><g class="cls-12"><path class="cls-5" d="M310.88,258.29l117.86-72.92-6.5-5.52L285,233.72Z"/><path class="cls-6" d="M312.05,308.19,443.28,183.05l-7.6-2.89L284.84,272.79Z"/></g></svg>