<svg id="Layer_1" data-name="Layer 1" xmlns="http://www.w3.org/2000/svg" viewBox="0 0 159.85 116.61"><defs><style>.cls-1{fill:none;stroke:#9fd7e7;stroke-miterlimit:10;stroke-width:2px;fill-rule:evenodd;}</style></defs><g id="Layer11"><path class="cls-1" d="M48.5,31.88c.06-.42,1.72-10.37,11.09-14.08,8.7-3.45,16.24,1.6,16.82,2a16.55,16.55,0,0,1,4.06-4.45,16.81,16.81,0,0,1,12.32-3.17,16.51,16.51,0,0,1,12.6,11.14,13.81,13.81,0,0,1,13.74,3.26c5.08,5,3.92,11.82,3.81,12.37a13.67,13.67,0,0,1,3,25.82A15.45,15.45,0,0,1,126,82.65c-4.74,6.47-12.91,6-13.43,6A13.57,13.57,0,0,1,89.54,99.31a13.57,13.57,0,0,1-22.33-1.1,14.51,14.51,0,0,1-11.69,1.66A14.23,14.23,0,0,1,45.93,89c-.88.08-7.13.5-11.64-4.19a14.77,14.77,0,0,1-2.53-16.09c-.73-.85-8-9.68-5.11-20.57a22.29,22.29,0,0,1,8.5-12.07A22.91,22.91,0,0,1,48.5,31.88Z"/></g></svg>