<svg id="Layer_1" data-name="Layer 1" xmlns="http://www.w3.org/2000/svg" viewBox="0 0 236.21 270.26"><defs><style>.cls-1{fill:none;stroke:#515151;stroke-miterlimit:10;stroke-width:3px;fill-rule:evenodd;}</style></defs><path class="cls-1" d="M126.65,154.69c-.48-.55-4.51-5-10.77-4.63a13.44,13.44,0,0,0-11.46,8.53c-2,.18-9.87,1.14-15,7.63a17.44,17.44,0,0,0-3.61,7.58,18.46,18.46,0,0,0,2.29,12.76,16.9,16.9,0,0,0-6.64,5.62c-5,7.41-3.34,19.17,3.84,25.28A19.4,19.4,0,0,0,97,221.8a15.78,15.78,0,0,0,11.71,10.75,15.39,15.39,0,0,0,10.56-2,16.24,16.24,0,0,0,11.08,6.09c8.15.69,13.29-5.49,13.71-6a14.55,14.55,0,0,0,10.73,1.71c5.37-1.39,9.51-6.16,10.53-12.14a8,8,0,0,0,2,.13c5.8-.4,11.77-7.54,11.64-14.84a15.37,15.37,0,0,0-4-9.62c4.64-5.63,5.86-13.13,3.09-19.31a18.29,18.29,0,0,0-9.92-9.19c-3.54-8.53-10.84-13.73-17.81-13.11a14.77,14.77,0,0,0-8.36,3.8,9.63,9.63,0,0,0-6.55-6.09A9.16,9.16,0,0,0,126.65,154.69Z"/><path class="cls-1" d="M54.25,39.39a16.58,16.58,0,0,1,13.53-.21s2.18-6.57,12.09-7c10.65-.43,15,9.49,15,9.49a18,18,0,0,1,13.64,31.08c3.56,7.7,1.37,16.45-4.61,20.72C97.12,98.37,88.8,95,88.3,94.83c-1.82,8.2-8.47,14.14-16.06,14.7-8.83.64-14.56-6.32-15.07-7-.78.38-7.33,3.48-13.72.2-5.91-3-9.19-10.24-7.68-17.62A10.85,10.85,0,0,1,35,65.61a8.74,8.74,0,0,1-1.94-5.4,9.84,9.84,0,0,1,2.64-6.58c3.66-4,9.23-3.5,9.9-3.43A16.61,16.61,0,0,1,54.25,39.39Z"/></svg>