<svg id="Layer_1" data-name="Layer 1" xmlns="http://www.w3.org/2000/svg" xmlns:xlink="http://www.w3.org/1999/xlink" viewBox="0 0 300 300"><defs><style>.cls-1{fill:none;}.cls-2{clip-path:url(#clip-path);}.cls-3{clip-path:url(#clip-path-2);}.cls-11,.cls-4{fill:#ffc800;}.cls-4,.cls-5,.cls-6,.cls-7{fill-rule:evenodd;}.cls-5{fill:#ffe444;}.cls-6{fill:#f80;}.cls-7{fill:#ffcf19;}.cls-8{fill:#ffea83;}.cls-9{clip-path:url(#clip-path-3);}.cls-10{clip-path:url(#clip-path-4);}</style><clipPath id="clip-path"><path class="cls-1" d="M-245,0l75,75h-75ZM-95,75V0l-75,75ZM-245,225V150l-75,75Zm0-150h-75l75,75ZM-95,225h-75l75,75Zm-150,0v75l75-75ZM-95,75v75l75-75Zm0,150h75l-75-75ZM-170,75l-75,75,75,75,75-75Z"/></clipPath><clipPath id="clip-path-2"><rect class="cls-1" x="-341.3" y="-21.19" width="342.49" height="342.49"/></clipPath><clipPath id="clip-path-3"><path class="cls-1" d="M149.22,150H-.78V0h150Zm150,0h-150V300h150Z"/></clipPath><clipPath id="clip-path-4"><rect class="cls-1" x="-0.78" width="300" height="300"/></clipPath></defs><g class="cls-2"><g class="cls-3"><path class="cls-4" d="M6.82-2.68-116.32,100.58l8.24,8.63L7.17,34.14Z"/><path class="cls-4" d="M26.57,304.06-110.9,187.12l-12.47,10.36,138.72,144Z"/><path class="cls-5" d="M8.47,42.72l-117.91,71.76c4.29,8.19,10.18,10.94,10.18,10.94s113-49.94,122.17-53.76Z"/><path class="cls-6" d="M9.11-31.53l-132,127.32,2.37,8.69L10.18-5Z"/><path class="cls-6" d="M12.76,25.1l-120.42,83.42.22,4L12.1,40.34Z"/><path class="cls-5" d="M-29.3-35.71-130.95,90.93l6.59,6.94L12.12-30.45Z"/><path class="cls-6" d="M1.48,325.06-116.33,201.28l-5.71,4.56,88.43,130.74Z"/><path class="cls-4" d="M6,71.69-100.65,124l1.47,14L15.66,91.39Z"/><path class="cls-4" d="M30.81,232.9-115.72,174l2.71-4L33.45,217.13Z"/><path class="cls-6" d="M20.29,137.84l-123.95,14.57,2.91-4,117-30Z"/><path class="cls-7" d="M22.11,266.67l-134.56-83.26,7.42-6.29L51.69,238.61Z"/><path class="cls-5" d="M12.86,168.3l-117.5-9.07-.66-6.87L15,138.43Z"/><path class="cls-5" d="M20.77,323.64-129,180.77l8.67-3.29L51.84,283.22Z"/><path class="cls-5" d="M18.62,213l-129.46-41.78,8.76-7.16L27.18,174.48Z"/><path class="cls-7" d="M19.68,186.76-98.73,165.08l1-6,115,6.26C17.9,175.21,19.68,186.76,19.68,186.76Z"/><path class="cls-5" d="M12.91,120.32-95,147.36-97,135.58,12.42,92.78Z"/><path class="cls-6" d="M5.87,223.29l-107.09-44.1-.42,1.19L6.93,235.68Z"/><path class="cls-4" d="M26.32,28.53l-131.69,82.92.74.65,136-81.4Z"/></g></g><rect class="cls-8" x="-0.67" width="300" height="300"/><g class="cls-9"><g class="cls-10"><path class="cls-6" d="M233.92-28.57,171,103.43l6.67-2.37L289.81-28.07Z"/><path class="cls-4" d="M314.5,6.42,200.21,102.25l7.65,8,107-69.67Z"/><path class="cls-7" d="M265.18-11.27,184,91.31l2.56,2.59c29.81-36.79,57.15-73.79,88.87-108Z"/><path class="cls-6" d="M-15.84-25.13l116.44,127,14.69-10.15L52.58-25.94Z"/><path class="cls-6" d="M-11.26,41l101.75,80.2,3.29-7.44L-10.86,18.91Z"/><path class="cls-4" d="M332.83,291.11,205.24,182.57l-11.57,9.62L322.41,325.83Z"/><path class="cls-7" d="M158.55-16.18,151.17,84.58l11.15-3.8,27.09-97.27Z"/><path class="cls-7" d="M134.66,314.68l12.77-126.85L136,184.48,103.36,295.3l-7.17,24.6Z"/><path class="cls-7" d="M19.75-12.95,108,101.13l3.94-6.58L51.82-12Z"/><path class="cls-5" d="M316,48.55,206.6,115.15c4,7.6,9.44,10.16,9.44,10.16S320.93,79,329.43,75.41Z"/><path class="cls-6" d="M316.62-20.36,194.08,97.81l2.2,8.06L317.62,4.25Z"/><path class="cls-6" d="M320,32.2,208.25,109.62l.21,3.69,110.94-67Z"/><path class="cls-5" d="M200.35-47.56l-35.64,135L170,88.74,223.13-28Z"/><path class="cls-5" d="M193.41-24.82,164.71,87.4,170,88.74,223.13-28Z"/><path class="cls-5" d="M281-24.24,186.63,93.29l6.12,6.45L319.42-19.36Z"/><path class="cls-5" d="M118.29-34.8,135.44,87.65l11.44-2.54-.19-118.45Z"/><path class="cls-5" d="M-17.11,76.73l109.22,54,.07-8.24L-12,41.9Z"/><path class="cls-5" d="M-9.06,15.35,95.4,111l8.31-8.11-115-136.09Z"/><path class="cls-5" d="M54.17-21.41,112.63,90.85,128,87.7,96.09-30.13Z"/><path class="cls-4" d="M-26.34,231.58l136-54.64-2.52-3.67L-28.79,216.94Z"/><path class="cls-6" d="M-16.81,137.88l115.27,19-2.7-3.75L-12.8,125.29Z"/><path class="cls-6" d="M-8.77,232.61l112.08-51.89L99.58,179-9.28,218.84Z"/><path class="cls-7" d="M62.25,313,128.62,182.5l-8.44-.4L-16.92,314.46Z"/><path class="cls-7" d="M-18.26,262.92l124.88-77.27-6.89-5.84L-45.73,236.88Z"/><path class="cls-5" d="M-9.68,171.62,99.37,163.2l.61-6.37L-10.45,138Z"/><path class="cls-5" d="M-17,315.79,122,183.19l-8-3.06L-45.86,278.28Z"/><path class="cls-5" d="M-15,213.14l120.15-38.77L97,167.72l-120,9.64Z"/><path class="cls-5" d="M177.59,310,162.68,209c-3.37-.13-6.94-.39-10.7-.83q-3.42-.4-6.57-.93L135.18,309.56Z"/><path class="cls-5" d="M230.68,315.09l-48.4-106.71-10.85.18,22.74,107.56Z"/><path class="cls-5" d="M97,311.45,129.65,204.5l-12.12-.45L63,311.06Z"/><path class="cls-6" d="M245.11,316.25,182.55,197.18l-4.48,2.72,52.65,116.86Z"/><path class="cls-6" d="M309.54,310.59,200.2,195.72,194.91,200,277,321.29Z"/><path class="cls-5" d="M275.14,311.43,182.4,179.32,177,187.41,243.83,316Z"/><path class="cls-6" d="M102.47,313l32.62-120.56-4.16,4.81L89.27,312.68Z"/><path class="cls-7" d="M203.13,355.3,167.51,188.47l-7.48,1c4.15,36.54,14.24,150,14.24,150S191.26,352.83,203.13,355.3Z"/><path class="cls-6" d="M117.38,195.49l-77.3,115.1L6.13,308.46,112.58,192.71Z"/><path class="cls-4" d="M203.67-68,157.4,98.42l4,.94L206.9-68.48Z"/><path class="cls-4" d="M222.23-26.84,171.28,85.59l7.23,3.31,64.88-114Z"/><path class="cls-4" d="M146.79-12.87l-1.5,92.18L153,78.1l6.27-92.43Z"/><path class="cls-4" d="M94.78-18.25,127.84,88.22l8.46-2.36L121-19.21Z"/><path class="cls-4" d="M-16.92,102.2,96.26,142.6,95,131.27-17.94,69C-18.42,68.12-16.92,102.2-16.92,102.2Z"/><path class="cls-4" d="M313.69,75.44,214.75,124l1.37,13L322.71,93.73Z"/><path class="cls-7" d="M-16,188.75l109.9-20.13-1-5.57-106.71,5.81C-14.36,178-16,188.75-16,188.75Z"/><path class="cls-5" d="M-9.74,127.5,90.6,151.72l1.83-10.95L-9.51,101.94Z"/><path class="cls-4" d="M336.76,225.07l-136-54.64,2.51-3.68,135.94,43.67Z"/><path class="cls-6" d="M327,136.83,212,150.35l2.7-3.75,108.56-27.82Z"/><path class="cls-7" d="M328.69,256.4,203.8,179.13l6.89-5.84,145.46,57.07Z"/><path class="cls-5" d="M320.1,165.11l-109-8.42-.61-6.38L322.1,137.38Z"/><path class="cls-5" d="M327.45,309.28l-139-132.6,8-3.06,159.83,98.14Z"/><path class="cls-5" d="M325.46,206.63,205.3,167.85l8.13-6.64,120,9.64Z"/><path class="cls-7" d="M326.44,182.24l-109.9-20.13,1-5.57,106.71,5.81C324.79,171.52,326.44,182.24,326.44,182.24Z"/><path class="cls-5" d="M320.15,120.57,220,145.67l-1.92-10.94L319.7,95Z"/><path class="cls-4" d="M-13.1,16.71,92.24,114l3.7-6.9L-10.86,3.91Z"/><path class="cls-4" d="M-25.46,34.29,90,121l.32-.86L-25.24,29.24Z"/><path class="cls-6" d="M313.62,216.15l-99.4-40.94-.38,1.11L314.6,227.64Z"/><path class="cls-4" d="M332.6,35.38l-122.22,77,.68.6L337.24,37.39Z"/><circle class="cls-11" cx="150.34" cy="148.18" r="70.07"/></g></g></svg>