<svg id="Layer_1" data-name="Layer 1" xmlns="http://www.w3.org/2000/svg" viewBox="0 0 400 250"><defs><style>.cls-1{fill:none;stroke:#6b9e67;stroke-miterlimit:10;stroke-width:2px;}.cls-1,.cls-2{fill-rule:evenodd;}.cls-2{fill:#6b9e67;}</style></defs><path class="cls-1" d="M7.25,140.1c1.77-4.64,6.05-6.82,7.46-7.46,7.78-2.59,0-5.18,2.59-10.37,5.19-5.19,15.56-5.19,18.16-7.79,2.59,0-2.59-7.78,0-7.78,5.18-3.73,9.35-4.44,12.37-4.27,4.34.24,8.31,2.39,9.58.78,1.06-1.33-.47-4.3.42-4.73.4-.19,1,.28,1.19.44,3.07,2.27,13.13,1.4,16-3.93a7.22,7.22,0,0,0,.84-3c.6-.06,1.6-.15,2.83-.22,9.57-.51,14.9,1.46,16.3-.77a2.84,2.84,0,0,0,.1-2.42c2.59-5.19,25.94,7.78,36.32,2.6,5.19-2.6,7.78,0,10.38,0,3.32,0,3.55-2.9,7.19-3.27,1.81-.19,1.91.46,5.41.75a34.3,34.3,0,0,0,5.56-.08c2.84-.18,2.54,0,10.38,0,13,0,15.56,0,23.35-2.59a50.78,50.78,0,0,1,5.1-1.2c1.33-.31,6.56-1.53,7.82-1.91C215,80.32,212.15,65.71,222.25,60a76.29,76.29,0,0,0,8.36-4.46c2-1.31,3.59-2.51,4.61-3.32a25.68,25.68,0,0,0,0,10.38c1.36,6.84.64,25.36.48,29.59-.26,6.59-.55,13.84-1.78,23.21-.1.74-1.61,12-3.91,18.56-.37,1.06-1,2.77-2,5.68-.68,2.08-1.1,3.27-1.82,5.36a28.17,28.17,0,0,1-1.37,3.21c-5.19,10.38,0,10.38-7.79,20.75-5.18,7.79-2.59,10.38-15.56,13-10.38,2.59-7.78,5.18-15.57,13s-2.59,7.78-18.16,7.78c-13,0-2.59,2.59-23.35,2.59s-18.16-2.59-31.13,0c-13,5.19-23.35,2.6-23.35,2.6l-5.19-7.78c-2.59-5.19-20.75-2.6-25.94-5.19-10.38-7.79-2.59-5.19-10.38-7.79-5.19-2.59-7.78,0-10.38-7.78,0-2.59-7.78-5.19-10.37-7.78-7.79-15.57-2.6-2.6-13-13C7.81,154,5,146.14,7.25,140.1Z"/><path class="cls-1" d="M318.24,57.41c1.75.35,3.53.87,4.29,2.33s-.79,3.9.9,10.64c2.59,13-20.76,5.19-23.35,15.57,0,2.59-10.38,5.19-10.38,7.78s-2.59,13-10.38,15.57c-5.19,2.59-7.78,5.18-13,7.78-13,2.59-10.38,0-20.75,7.78a29,29,0,0,1-5.74,4.71c-2.06,1.27-3.13,1.57-5.12,2.82a27.22,27.22,0,0,0-5.73,4.89,115.06,115.06,0,0,0,3.45-12.71,161.45,161.45,0,0,0,2.76-23.06c.08-1.08.28-4.05.44-8,.35-8.63,1-23.5-.44-30.94a21.73,21.73,0,0,1-.49-6c.1-1.6.49-4.38.49-4.38,2.59-2.6,5.19-2.6,10.38,0,5.19,0,10.38,2.59,13,2.59,5.19,0,5.19,0,10.38-2.59,2.59-2.6,5.19,0,13-2.6,5.19,0,7.78,0,10.38,2.6,5.19,2.59,7.78,2.59,10.37,5.19A47.87,47.87,0,0,1,318.24,57.41Z"/><path class="cls-2" d="M235.91,93.49c.05-1.28.1-2.56.14-3.84,5-2.27,12.38-5.55,21.39-9.35,17.34-7.3,26.21-11,35.79-13.26,12.34-2.93,22-3.05,30.85-3.09,14.87-.09,39.43,1.5,70.18,11.56.26.47-4.65,6.65-5.83,6.66-14.17-7-36.69-15.69-64.19-16a140.47,140.47,0,0,0-30.46,3c-14.29,3.12-24.89,8-35.94,13C248.53,86.43,241.06,90.52,235.91,93.49Z"/><path class="cls-2" d="M206.88,83.39l1.44-1c1.1-.75,2.19-1.48,3.28-2.2-6.11,11-23.5,39.25-56.77,56.66a141.44,141.44,0,0,1-48.22,14.74c-5.29.6-11.08.61-22.67.64,0,0-41.37.2-72.46-8.3C11,143.8,8.17,142.8,8,142.79a.13.13,0,0,1-.09,0,.09.09,0,0,1,0-.09s.07,0,.1,0a35.45,35.45,0,0,1,3.76.72c2.21,1.1,34.36,6.84,71.94,7.18,11.24.1,16.86.15,22.67-.49a134.6,134.6,0,0,0,47.49-14.77C184.12,119.17,200.29,94.77,206.88,83.39Z"/></svg>