<svg id="Layer_1" data-name="Layer 1" xmlns="http://www.w3.org/2000/svg" xmlns:xlink="http://www.w3.org/1999/xlink" viewBox="0 0 300 300"><defs><style>.cls-1{fill:none;}.cls-2{clip-path:url(#clip-path);}.cls-3{clip-path:url(#clip-path-2);}.cls-4,.cls-9{fill:#ffc800;}.cls-4,.cls-5,.cls-6,.cls-7{fill-rule:evenodd;}.cls-5{fill:#ffe444;}.cls-6{fill:#f80;}.cls-7{fill:#ffcf19;}.cls-8{clip-path:url(#clip-path-3);}.cls-10{clip-path:url(#clip-path-4);}.cls-11{clip-path:url(#clip-path-5);}</style><clipPath id="clip-path"><path class="cls-1" d="M-245,0l75,75h-75ZM-95,75V0l-75,75ZM-245,225V150l-75,75Zm0-150h-75l75,75ZM-95,225h-75l75,75Zm-150,0v75l75-75ZM-95,75v75l75-75Zm0,150h75l-75-75ZM-170,75l-75,75,75,75,75-75Z"/></clipPath><clipPath id="clip-path-2"><rect class="cls-1" x="-341.3" y="-21.19" width="342.49" height="342.49"/></clipPath><clipPath id="clip-path-3"><rect class="cls-1" width="300" height="300"/></clipPath><clipPath id="clip-path-4"><path class="cls-1" d="M395,0l75,75H395ZM545,75V0L470,75ZM395,225V150l-75,75Zm0-150H320l75,75ZM545,225H470l75,75Zm-150,0v75l75-75ZM545,75v75l75-75Zm0,150h75l-75-75ZM470,75l-75,75,75,75,75-75Z"/></clipPath><clipPath id="clip-path-5"><rect class="cls-1" x="298.7" y="-21.19" width="342.49" height="342.49"/></clipPath></defs><g class="cls-2"><g class="cls-3"><path class="cls-4" d="M6.82-2.68-116.32,100.58l8.24,8.63L7.17,34.14Z"/><path class="cls-4" d="M26.57,304.06-110.9,187.12l-12.47,10.36,138.72,144Z"/><path class="cls-5" d="M8.47,42.72l-117.91,71.76c4.29,8.19,10.18,10.94,10.18,10.94s113-49.94,122.17-53.76Z"/><path class="cls-6" d="M9.11-31.53l-132,127.32,2.37,8.69L10.18-5Z"/><path class="cls-6" d="M12.76,25.1l-120.42,83.42.22,4L12.1,40.34Z"/><path class="cls-5" d="M-29.3-35.71-130.95,90.93l6.59,6.94L12.12-30.45Z"/><path class="cls-6" d="M1.48,325.06-116.33,201.28l-5.71,4.56,88.43,130.74Z"/><path class="cls-4" d="M6,71.69-100.65,124l1.47,14L15.66,91.39Z"/><path class="cls-4" d="M30.81,232.9-115.72,174l2.71-4L33.45,217.13Z"/><path class="cls-6" d="M20.29,137.84l-123.95,14.57,2.91-4,117-30Z"/><path class="cls-7" d="M22.11,266.67l-134.56-83.26,7.42-6.29L51.69,238.61Z"/><path class="cls-5" d="M12.86,168.3l-117.5-9.07-.66-6.87L15,138.43Z"/><path class="cls-5" d="M20.77,323.64-129,180.77l8.67-3.29L51.84,283.22Z"/><path class="cls-5" d="M18.62,213l-129.46-41.78,8.76-7.16L27.18,174.48Z"/><path class="cls-7" d="M19.68,186.76-98.73,165.08l1-6,115,6.26C17.9,175.21,19.68,186.76,19.68,186.76Z"/><path class="cls-5" d="M12.91,120.32-95,147.36-97,135.58,12.42,92.78Z"/><path class="cls-6" d="M5.87,223.29l-107.09-44.1-.42,1.19L6.93,235.68Z"/><path class="cls-4" d="M26.32,28.53l-131.69,82.92.74.65,136-81.4Z"/></g></g><g class="cls-8"><path class="cls-6" d="M228.88-16.81l-59.4,124.58,6.3-2.24L281.64-16.33Z"/><path class="cls-4" d="M304.93,16.21,197.07,106.66l7.22,7.56,101-65.76Z"/><path class="cls-7" d="M258.39-.48,181.75,96.33l2.41,2.44C212.3,64.06,238.11,29.13,268-3.12Z"/><path class="cls-6" d="M-6.84-13.56l109.9,119.87,13.87-9.58L57.74-14.33Z"/><path class="cls-6" d="M-2.51,48.85l96,75.69,3.12-7L-2.13,28Z"/><path class="cls-4" d="M322.24,284.9,201.82,182.46l-10.92,9.08L312.4,317.67Z"/><path class="cls-7" d="M157.75-5.12l-7,95.1,10.52-3.59,25.57-91.8Z"/><path class="cls-7" d="M135.21,307.14l12-119.72-10.78-3.16L105.66,288.85,98.9,312.07Z"/><path class="cls-7" d="M26.76-2.07,110,105.6l3.71-6.21L57-1.18Z"/><path class="cls-5" d="M306.38,56,203.1,118.83c3.76,7.18,8.91,9.59,8.91,9.59s99-43.74,107-47.09Z"/><path class="cls-6" d="M306.94-9.06,191.28,102.47l2.08,7.61L307.88,14.17Z"/><path class="cls-6" d="M310.14,40.54,204.66,113.61l.19,3.48,104.71-63.2Z"/><path class="cls-5" d="M197.2-34.73,163.57,92.64l5,1.27L218.7-16.26Z"/><path class="cls-5" d="M190.65-13.27,163.57,92.64l5,1.27L218.7-16.26Z"/><path class="cls-5" d="M273.29-12.72l-89,110.92,5.78,6.09L309.57-8.11Z"/><path class="cls-5" d="M119.76-22.69,135.94,92.88l10.8-2.4-.18-111.79Z"/><path class="cls-5" d="M-8,82.57l103.09,51,.06-7.78-98.32-76Z"/><path class="cls-5" d="M-.43,24.64l98.58,90.25,7.85-7.66L-2.57-21.21Z"/><path class="cls-5" d="M59.24-10,114.41,95.89l14.52-3L98.81-18.28Z"/><path class="cls-4" d="M-16.74,228.72l128.35-51.57-2.37-3.47L-19.06,214.9Z"/><path class="cls-6" d="M-7.75,140.28l108.8,17.92-2.55-3.54L-4,128.4Z"/><path class="cls-6" d="M-.16,229.69l105.77-49-3.51-1.67L-.64,216.69Z"/><path class="cls-7" d="M66.87,305.53,129.5,182.4l-8-.38L-7.85,306.93Z"/><path class="cls-7" d="M-9.12,258.29l117.86-72.92-6.5-5.52L-35,233.72Z"/><path class="cls-5" d="M-1,172.13l102.92-7.95.57-6L-1.74,140.43Z"/><path class="cls-5" d="M-7.95,308.19,123.28,183.05l-7.6-2.89L-35.16,272.79Z"/><path class="cls-5" d="M-6.07,211.32l113.4-36.6-7.68-6.27-113.22,9.09Z"/><path class="cls-5" d="M170.76,303.78c-3.31-56.09-4-38.6-9.11-96.4-1.84.7-10.1-.79-10.1-.79l-1.26,98Z"/><path class="cls-5" d="M225.83,307.54,180.15,206.82l-10.24.17,21.46,101.52Z"/><path class="cls-5" d="M99.7,304.1l30.78-101L119,202.73l-51.5,101Z"/><path class="cls-6" d="M239.45,308.63l-59-112.38-4.23,2.57L225.86,309.1Z"/><path class="cls-6" d="M151.3,305.83,152,194.28h-5.4l-12.17,112Z"/><path class="cls-6" d="M300.26,303.29,197.06,194.87l-5,4,77.46,114.51Z"/><path class="cls-5" d="M267.79,304.07,180.27,179.4,175.16,187l63.07,121.38Z"/><path class="cls-6" d="M104.82,305.56l30.79-113.78-3.92,4.54L92.36,305.25Z"/><path class="cls-7" d="M199.82,345.48,166.21,188l-7.06.94c3.91,34.49,13.44,141.53,13.44,141.53S188.62,343.15,199.82,345.48Z"/><path class="cls-6" d="M118.9,194.66l-73,108.62-32-2L114.37,192Z"/><path class="cls-4" d="M200.33-54,156.67,103l3.82.89L203.38-54.48Z"/><path class="cls-4" d="M217.85-15.17,169.76,90.93l6.83,3.13L237.83-13.55Z"/><path class="cls-4" d="M146.65-2l-1.41,87,7.28-1.15,5.92-87.23Z"/><path class="cls-4" d="M97.57-7.07l31.2,100.49,8-2.23L122.3-8Z"/><path class="cls-4" d="M-7.85,106.61,99,144.74l-1.22-10.69L-8.82,75.31C-9.27,74.45-7.85,106.61-7.85,106.61Z"/><path class="cls-4" d="M304.17,81.35,210.8,127.2l1.29,12.23L312.68,98.61Z"/><path class="cls-7" d="M-7,188.3l103.72-19-.9-5.26L-4.89,169.52C-5.44,178.18-7,188.3-7,188.3Z"/><path class="cls-5" d="M-1.07,130.48l94.69,22.87L95.35,143-.85,106.36Z"/><path class="cls-4" d="M326,222.57,197.6,171l2.37-3.47,128.29,41.22Z"/><path class="cls-6" d="M316.73,139.29,208.16,152.06l2.55-3.54,102.45-26.26Z"/><path class="cls-7" d="M318.32,252.14,200.46,179.22l6.5-5.51,137.28,53.86Z"/><path class="cls-5" d="M310.22,166,207.3,158l-.57-6L312.1,139.81Z"/><path class="cls-5" d="M317.15,302.05,185.92,176.9l7.6-2.88,150.85,92.62Z"/><path class="cls-5" d="M315.27,205.17l-113.39-36.6,7.67-6.27,113.22,9.1Z"/><path class="cls-7" d="M316.2,182.15l-103.72-19,.9-5.26,100.71,5.49C314.64,172,316.2,182.15,316.2,182.15Z"/><path class="cls-5" d="M310.27,124l-94.5,23.68L214,137.31l95.88-37.48Z"/><path class="cls-4" d="M-4.25,25.93l99.42,91.8,3.49-6.51L-2.14,13.84Z"/><path class="cls-4" d="M-15.91,42.52l109,81.84.3-.8L-15.7,37.75Z"/><path class="cls-6" d="M304.1,214.15l-93.8-38.63-.37,1L305,225Z"/><path class="cls-4" d="M322,43.55,206.66,116.18l.65.57,119.08-71.3Z"/><circle class="cls-9" cx="150" cy="150" r="66.13"/></g><g class="cls-10"><g class="cls-11"><path class="cls-6" d="M290.89-36.67,416.35,100.18l15.83-10.94L364.61-37.54Z"/><path class="cls-6" d="M295.83,34.58,405.46,121l3.55-8L296.27,10.78Z"/><path class="cls-5" d="M289.52,73.08,407.2,131.25l.08-8.88L295,35.56Z"/><path class="cls-5" d="M298.2,7,410.75,110l9-8.73L295.76-45.4Z"/><path class="cls-4" d="M279.58,239.92l146.53-58.87-2.71-4L276.94,224.15Z"/><path class="cls-6" d="M289.85,139l124.2,20.46-2.91-4-117-30Z"/><path class="cls-6" d="M298.51,241l120.76-55.91-4-1.91L298,226.2Z"/><path class="cls-7" d="M375,327.62,446.54,187l-9.09-.43L289.73,329.22Z"/><path class="cls-7" d="M288.28,273.69l134.56-83.26-7.42-6.29L258.69,245.63Z"/><path class="cls-5" d="M297.53,175.32,415,166.25l.66-6.87-119-20.24Z"/><path class="cls-5" d="M289.62,330.66,439.44,187.79l-8.67-3.3L258.55,290.24Z"/><path class="cls-5" d="M291.77,220.06l129.46-41.78-8.76-7.16L283.21,181.5Z"/><path class="cls-4" d="M289.73,100.53l122,43.52-1.41-12.21L288.63,64.78C288.12,63.81,289.73,100.53,289.73,100.53Z"/><path class="cls-7" d="M290.71,193.78l118.41-21.69-1-6-115,6.27C292.49,182.22,290.71,193.78,290.71,193.78Z"/><path class="cls-5" d="M297.47,127.78l108.11,26.1,2-11.8L297.72,100.24Z"/><path class="cls-4" d="M293.84,8.41,407.35,113.22l4-7.43L296.26-5.38Z"/><path class="cls-4" d="M280.53,27.36,405,120.79l.35-.92-124.55-98Z"/></g></g></svg>